<svg width="144" height="167" viewBox="0 0 144 167" fill="none" xmlns="http://www.w3.org/2000/svg">
<path d="M64.2126 2.10778C68.938 -0.702595 74.8222 -0.702595 79.5476 2.10778L136.428 35.9367C140.974 38.6406 143.76 43.5392 143.76 48.8289V117.267C143.76 122.556 140.974 127.455 136.428 130.159L79.5476 163.988C74.8222 166.798 68.938 166.798 64.2126 163.988L7.3325 130.159C2.7861 127.455 0 122.556 0 117.267V48.8289C0 43.5392 2.7861 38.6406 7.3325 35.9367L64.2126 2.10778Z" fill="#004BAD"/>
<path d="M119.12 66.4857L75.5356 53.0951C73.1606 52.3654 70.5981 52.3654 68.2246 53.0951L24.6385 66.4857C20.9604 67.6154 20.9604 72.4795 24.6385 73.6092L32.237 75.9436C30.5698 78.0045 29.5448 80.5186 29.4432 83.2717C27.9385 84.1342 26.8791 85.6905 26.8791 87.5483C26.8791 89.2327 27.7666 90.6499 29.0448 91.5562L25.0557 109.506C24.7088 111.067 25.8963 112.549 27.4948 112.549H36.262C37.862 112.549 39.0495 111.067 38.7026 109.506L34.7135 91.5562C35.9917 90.6499 36.8792 89.2327 36.8792 87.5483C36.8792 85.7405 35.8682 84.228 34.4323 83.3499C34.551 81.003 35.751 78.928 37.6651 77.6123L68.2231 87.0014C69.6387 87.4358 72.3543 87.978 75.534 87.0014L119.12 73.6108C122.8 72.4795 122.8 67.617 119.12 66.4857ZM77.0028 91.7812C72.5449 93.1499 68.7465 92.3937 66.7543 91.7812L44.0948 84.8202L41.8792 102.549C41.8792 108.072 55.3105 112.549 71.8793 112.549C88.4481 112.549 101.88 108.072 101.88 102.549L99.6639 84.8186L77.0028 91.7812Z" fill="#FF914C"/>
</svg>
