<svg width="327" height="171" viewBox="0 0 327 171" fill="none" xmlns="http://www.w3.org/2000/svg">
<path d="M75.3325 4.56018C80.0579 1.7498 85.9421 1.7498 90.6675 4.56018L147.548 38.3891C152.094 41.093 154.88 45.9916 154.88 51.2813V119.719C154.88 125.008 152.094 129.907 147.548 132.611L90.6675 166.44C85.9421 169.25 80.0579 169.25 75.3325 166.44L18.4524 132.611C13.906 129.907 11.1199 125.008 11.1199 119.719V51.2813C11.1199 45.9916 13.906 41.093 18.4524 38.3891L75.3325 4.56018Z" fill="#004BAD"/>
<path d="M130.24 68.9379L86.6557 55.5473C84.2807 54.8176 81.7182 54.8176 79.3447 55.5473L35.7586 68.9379C32.0805 70.0676 32.0805 74.9317 35.7586 76.0614L43.3571 78.3958C41.6899 80.4567 40.6649 82.9708 40.5633 85.7239C39.0586 86.5864 37.9992 88.1427 37.9992 90.0005C37.9992 91.6849 38.8867 93.1021 40.1649 94.0084L36.1758 111.958C35.8289 113.519 37.0164 115.001 38.6149 115.001H47.3821C48.9821 115.001 50.1696 113.519 49.8227 111.958L45.8336 94.0084C47.1118 93.1021 47.9993 91.6849 47.9993 90.0005C47.9993 88.1927 46.9883 86.6802 45.5524 85.8021C45.6711 83.4552 46.8711 81.3802 48.7852 80.0645L79.3432 89.4536C80.7588 89.888 83.4744 90.4302 86.6541 89.4536L130.24 76.063C133.92 74.9317 133.92 70.0692 130.24 68.9379ZM88.1229 94.2334C83.665 95.6021 79.8666 94.8459 77.8744 94.2334L55.2149 87.2724L52.9993 105.001C52.9993 110.524 66.4306 115.001 82.9994 115.001C99.5682 115.001 113 110.524 113 105.001L110.784 87.2708L88.1229 94.2334Z" fill="#FF914C"/>
<path d="M204.453 40.6035H222.119L222.852 44.3828C223.027 45.3398 223.193 46.2871 223.35 47.2246C223.506 48.1621 223.633 48.9434 223.73 49.5684L218.34 50.0664C218.223 49.3633 218.086 48.6602 217.93 47.957C217.793 47.2539 217.588 46.541 217.314 45.8184C216.357 45.5645 215.322 45.3887 214.209 45.291C213.096 45.1738 211.826 45.1152 210.4 45.1152C210.029 45.1152 209.609 45.1152 209.141 45.1152C208.691 45.1152 208.164 45.125 207.559 45.1445C206.953 45.1445 206.25 45.1543 205.449 45.1738C204.648 45.1934 203.721 45.2129 202.666 45.2324V58.9141H209.463C210.088 58.9141 210.586 58.8652 210.957 58.7676C211.348 58.6699 211.66 58.4941 211.895 58.2402C212.148 57.9668 212.354 57.5957 212.51 57.127C212.686 56.6582 212.871 56.0625 213.066 55.3398H215.996C215.996 57.293 215.977 59.2461 215.938 61.1992C215.898 63.1328 215.85 65.0176 215.791 66.8535C215.615 66.873 215.439 66.8828 215.264 66.8828C215.088 66.8828 214.912 66.8828 214.736 66.8828C214.404 66.8828 214.062 66.8828 213.711 66.8828C213.379 66.8633 213.047 66.8535 212.715 66.8535C212.5 66.0723 212.295 65.4277 212.1 64.9199C211.924 64.4121 211.719 64.0117 211.484 63.7188C211.27 63.4258 211.025 63.2305 210.752 63.1328C210.479 63.0156 210.156 62.957 209.785 62.957H202.666V77.7227H213.535C214.453 77.7227 215.254 77.6641 215.938 77.5469C216.641 77.4102 217.158 77.2344 217.49 77.0195C217.646 76.5898 217.793 75.9746 217.93 75.1738C218.066 74.373 218.213 73.2988 218.369 71.9512C219.229 71.9707 220.127 71.9902 221.064 72.0098C222.021 72.0098 223.018 72.0098 224.053 72.0098L223.965 75.7305C223.926 76.707 223.877 77.7031 223.818 78.7188C223.779 79.7148 223.73 80.6328 223.672 81.4727C222.812 81.6094 221.953 81.7266 221.094 81.8242C220.254 81.9219 219.365 82 218.428 82.0586C217.49 82.1172 216.494 82.1562 215.439 82.1758C214.404 82.2148 213.271 82.2344 212.041 82.2344C210.537 82.2344 209.121 82.2246 207.793 82.2051C206.465 82.1855 205.186 82.1562 203.955 82.1172C202.725 82.0977 201.533 82.0684 200.381 82.0293C199.248 82.0098 198.125 82 197.012 82C195.176 82 193.467 82.0098 191.885 82.0293C190.322 82.0488 188.75 82.1074 187.168 82.2051V77.7227H190.449C190.918 77.7227 191.357 77.7227 191.768 77.7227C192.197 77.7031 192.607 77.6641 192.998 77.6055C193.096 77.2148 193.174 76.7852 193.232 76.3164C193.291 75.8281 193.32 75.2715 193.32 74.6465V48.4844C193.32 47.8203 193.281 47.2441 193.203 46.7559C193.145 46.2676 193.066 45.8281 192.969 45.4375C192.598 45.3594 192.207 45.3203 191.797 45.3203C191.387 45.3008 190.947 45.291 190.479 45.291H186.992V41.3945C189.727 41.1016 192.559 40.8965 195.488 40.7793C198.438 40.6621 201.426 40.6035 204.453 40.6035ZM229.238 41.2773C231.777 41.0625 234.375 40.8965 237.031 40.7793C239.707 40.6621 242.52 40.6035 245.469 40.6035H258.33C258.838 40.6035 259.326 40.623 259.795 40.6621C260.264 40.7012 260.684 40.7988 261.055 40.9551C261.426 41.1113 261.719 41.3359 261.934 41.6289C262.148 41.9219 262.256 42.3125 262.256 42.8008V45.4375L239.053 77.5469H248.75C249.453 77.5469 250.156 77.5371 250.859 77.5176C251.582 77.4785 252.295 77.4199 252.998 77.3418C253.428 76.9512 253.828 76.5215 254.199 76.0527C254.57 75.584 254.893 75.0371 255.166 74.4121C255.439 73.7676 255.654 73.0156 255.811 72.1562C255.986 71.2969 256.074 70.2617 256.074 69.0508C256.582 69.0508 257.148 69.0703 257.773 69.1094C258.398 69.1289 258.994 69.1582 259.561 69.1973C260.127 69.2168 260.635 69.2363 261.084 69.2559C261.553 69.2754 261.885 69.2852 262.08 69.2852C262.1 69.6172 262.119 70.1641 262.139 70.9258C262.178 71.668 262.207 72.4883 262.227 73.3867C262.266 74.2656 262.295 75.1445 262.314 76.0234C262.354 76.9023 262.383 77.6348 262.402 78.2207C262.402 78.5137 262.373 78.9434 262.314 79.5098C262.275 80.0762 262.207 80.7793 262.109 81.6191C260.898 81.834 259.609 81.9512 258.242 81.9707C256.895 81.9902 255.43 82 253.848 82H230.557C230.205 81.9219 229.922 81.7949 229.707 81.6191C229.512 81.4434 229.355 81.2383 229.238 81.0039C229.141 80.75 229.072 80.4766 229.033 80.1836C229.014 79.8906 229.004 79.5977 229.004 79.3047V76.9023L251.68 45.1738H244.824C244.258 45.1738 243.564 45.2031 242.744 45.2617C241.943 45.3008 241.123 45.3789 240.283 45.4961C239.463 45.6133 238.691 45.7695 237.969 45.9648C237.266 46.1602 236.738 46.4043 236.387 46.6973C236.348 46.9707 236.318 47.3906 236.299 47.957C236.299 48.5234 236.299 49.1289 236.299 49.7734C236.299 50.0078 236.299 50.252 236.299 50.5059C236.318 50.7402 236.328 50.9746 236.328 51.209C235.352 51.209 234.375 51.2188 233.398 51.2383C232.441 51.2383 231.455 51.2383 230.439 51.2383C230.4 50.7109 230.322 50.0273 230.205 49.1875C230.107 48.3477 229.99 47.459 229.854 46.5215C229.736 45.584 229.619 44.6562 229.502 43.7383C229.385 42.8008 229.297 41.9805 229.238 41.2773ZM296.768 48.2207C297.041 47.6348 297.246 47.0977 297.383 46.6094C297.539 46.1016 297.666 45.5938 297.764 45.0859C297.451 45.0078 297.109 44.9688 296.738 44.9688C296.367 44.9492 295.967 44.9395 295.537 44.9395H292.988L293.838 40.8379C295.186 40.6816 296.592 40.5742 298.057 40.5156C299.541 40.457 301.143 40.4277 302.861 40.4277C303.877 40.4277 304.795 40.4375 305.615 40.457C306.436 40.4766 307.188 40.5059 307.871 40.5449C308.555 40.5645 309.18 40.6035 309.746 40.6621C310.332 40.7012 310.889 40.7598 311.416 40.8379L310.479 44.9395H307.812C307.402 44.9395 307.002 44.9492 306.611 44.9688C306.24 44.9688 305.859 45.0078 305.469 45.0859C305.137 45.5352 304.912 45.8379 304.795 45.9941C304.678 46.1309 304.6 46.2285 304.561 46.2871C304.541 46.3262 304.531 46.3555 304.531 46.375C304.531 46.3945 304.492 46.502 304.414 46.6973C304.336 46.873 304.189 47.1855 303.975 47.6348C303.76 48.0645 303.408 48.709 302.92 49.5684C302.451 50.4277 301.826 51.5508 301.045 52.9375C300.264 54.3242 299.268 56.0527 298.057 58.123L292.988 66.9121V73.9141C292.988 74.7344 293.008 75.4766 293.047 76.1406C293.105 76.7852 293.184 77.3613 293.281 77.8691C293.672 77.9277 294.062 77.9668 294.453 77.9863C294.863 78.0059 295.293 78.0156 295.742 78.0156H298.877V82.3809C297.041 82.2246 295.312 82.1172 293.691 82.0586C292.07 82.0195 290.508 82 289.004 82C287.227 82 285.42 82.0195 283.584 82.0586C281.748 82.1172 279.805 82.2246 277.754 82.3809V78.0156H280.859C281.309 78.0156 281.729 78.0156 282.119 78.0156C282.51 77.9961 282.9 77.9473 283.291 77.8691C283.486 77.2051 283.584 76.2676 283.584 75.0566V67.6445C283.35 67.2734 283.135 66.9023 282.939 66.5312C282.764 66.1602 282.568 65.7891 282.354 65.418L272.129 48.2207C271.875 47.8105 271.66 47.4395 271.484 47.1074C271.309 46.7754 271.143 46.4824 270.986 46.2285C270.85 45.9551 270.713 45.7305 270.576 45.5547C270.459 45.3594 270.312 45.2031 270.137 45.0859C269.746 45.0078 269.336 44.9688 268.906 44.9688C268.496 44.9492 268.066 44.9395 267.617 44.9395H265.596L264.834 40.8379C266.24 40.7012 267.656 40.6035 269.082 40.5449C270.527 40.4668 272.021 40.4277 273.564 40.4277C274.932 40.4277 276.172 40.4375 277.285 40.457C278.398 40.457 279.414 40.4766 280.332 40.5156C281.27 40.5352 282.119 40.5742 282.881 40.6328C283.643 40.6914 284.355 40.7598 285.02 40.8379L285.488 44.9395H283.525C283.076 44.9395 282.646 44.9492 282.236 44.9688C281.826 44.9688 281.455 45.0078 281.123 45.0859C281.279 45.7109 281.436 46.2188 281.592 46.6094C281.768 46.9805 281.963 47.3613 282.178 47.752L290 61.375C290.645 60.2227 291.299 59.0117 291.963 57.7422C292.627 56.4531 293.262 55.2129 293.867 54.0215C294.492 52.8301 295.059 51.7266 295.566 50.7109C296.074 49.6953 296.475 48.8652 296.768 48.2207Z" fill="#004BAD"/>
<path d="M195.48 127.6C194.733 127.6 193.907 127.507 193 127.32C192.093 127.16 191.227 126.893 190.4 126.52C189.6 126.147 188.933 125.64 188.4 125C187.893 124.333 187.64 123.52 187.64 122.56C187.64 122.027 187.707 121.467 187.84 120.88C187.973 120.293 188.147 119.813 188.36 119.44H189.28C189.387 121.467 190.053 123.067 191.28 124.24C192.507 125.413 194.067 126 195.96 126C197.267 126 198.307 125.76 199.08 125.28C199.88 124.8 200.453 124.187 200.8 123.44C201.173 122.667 201.36 121.853 201.36 121C201.36 119.773 201.053 118.773 200.44 118C199.827 117.2 199.027 116.533 198.04 116C197.08 115.44 196.053 114.92 194.96 114.44C193.893 113.933 192.867 113.373 191.88 112.76C190.92 112.147 190.133 111.387 189.52 110.48C188.907 109.573 188.6 108.427 188.6 107.04C188.6 105.6 188.96 104.347 189.68 103.28C190.4 102.187 191.413 101.333 192.72 100.72C194.027 100.107 195.56 99.8 197.32 99.8C198.867 99.8 200.133 99.92 201.12 100.16C202.133 100.4 202.947 100.64 203.56 100.88V106.68H202.64C202.48 104.973 201.973 103.667 201.12 102.76C200.267 101.853 198.907 101.4 197.04 101.4C195.733 101.4 194.667 101.613 193.84 102.04C193.04 102.44 192.453 102.973 192.08 103.64C191.733 104.28 191.56 104.96 191.56 105.68C191.56 106.747 191.867 107.627 192.48 108.32C193.093 109.013 193.88 109.613 194.84 110.12C195.827 110.627 196.867 111.133 197.96 111.64C199.08 112.147 200.12 112.733 201.08 113.4C202.067 114.067 202.867 114.893 203.48 115.88C204.093 116.867 204.4 118.12 204.4 119.64C204.4 121.293 204.013 122.72 203.24 123.92C202.493 125.093 201.44 126 200.08 126.64C198.747 127.28 197.213 127.6 195.48 127.6ZM234.153 127.24C232.606 127.24 231.42 126.947 230.593 126.36C229.766 125.747 228.993 124.987 228.273 124.08L219.993 113.68C219.646 113.253 219.38 112.96 219.193 112.8C219.006 112.64 218.806 112.56 218.593 112.56C218.38 112.56 218.193 112.64 218.033 112.8C217.873 112.933 217.793 113.24 217.793 113.72V123C217.793 123.907 217.886 124.573 218.073 125C218.286 125.427 218.66 125.707 219.193 125.84C219.726 125.973 220.513 126.053 221.553 126.08V127H211.593V126.08C212.313 126.053 212.873 125.973 213.273 125.84C213.7 125.707 213.993 125.427 214.153 125C214.313 124.573 214.393 123.907 214.393 123V104.4C214.393 103.467 214.286 102.8 214.073 102.4C213.886 101.973 213.526 101.693 212.993 101.56C212.46 101.427 211.66 101.347 210.593 101.32V100.4H220.593V101.32C219.873 101.347 219.313 101.427 218.913 101.56C218.513 101.693 218.22 101.973 218.033 102.4C217.873 102.8 217.793 103.467 217.793 104.4V111.08H217.873L226.433 104.12C227.073 103.587 227.486 103.187 227.673 102.92C227.86 102.653 227.953 102.413 227.953 102.2C227.953 101.933 227.806 101.733 227.513 101.6C227.22 101.44 226.66 101.347 225.833 101.32V100.4H234.233V101.32C233.433 101.373 232.713 101.573 232.073 101.92C231.433 102.267 230.7 102.773 229.873 103.44L222.273 109.64C221.846 109.96 221.846 110.4 222.273 110.96L231.633 122.88C232.353 123.787 232.94 124.467 233.393 124.92C233.873 125.373 234.326 125.68 234.753 125.84C235.206 126 235.726 126.08 236.313 126.08V127C235.593 127.16 234.873 127.24 234.153 127.24ZM241.492 127V126.08C242.212 126.053 242.772 125.973 243.172 125.84C243.599 125.707 243.892 125.427 244.052 125C244.212 124.573 244.292 123.907 244.292 123V104.4C244.292 103.467 244.186 102.8 243.972 102.4C243.786 101.973 243.426 101.693 242.892 101.56C242.359 101.427 241.559 101.347 240.492 101.32V100.4H250.492V101.32C249.772 101.347 249.212 101.427 248.812 101.56C248.412 101.693 248.119 101.973 247.932 102.4C247.772 102.8 247.692 103.467 247.692 104.4V123C247.692 123.907 247.786 124.573 247.972 125C248.186 125.427 248.559 125.707 249.092 125.84C249.652 125.973 250.452 126.053 251.492 126.08V127H241.492ZM258.132 127V126.08C258.852 126.053 259.412 125.973 259.812 125.84C260.212 125.707 260.492 125.427 260.652 125C260.839 124.573 260.932 123.907 260.932 123V104.4C260.932 103.467 260.826 102.8 260.612 102.4C260.426 101.973 260.066 101.693 259.532 101.56C258.999 101.427 258.199 101.347 257.132 101.32V100.4H267.132V101.32C266.412 101.347 265.852 101.427 265.452 101.56C265.052 101.693 264.759 101.973 264.572 102.4C264.412 102.8 264.332 103.467 264.332 104.4V123C264.332 124.147 264.532 124.867 264.932 125.16C265.359 125.427 266.172 125.56 267.372 125.56H271.012C272.346 125.56 273.372 125.347 274.092 124.92C274.839 124.467 275.372 123.88 275.692 123.16C276.039 122.413 276.252 121.613 276.332 120.76H277.252L276.932 127H258.132ZM282.671 127V126.08C283.391 126.053 283.951 125.973 284.351 125.84C284.751 125.707 285.031 125.427 285.191 125C285.378 124.573 285.471 123.907 285.471 123V104.4C285.471 103.467 285.365 102.8 285.151 102.4C284.965 101.973 284.605 101.693 284.071 101.56C283.538 101.427 282.738 101.347 281.671 101.32V100.4H291.671V101.32C290.951 101.347 290.391 101.427 289.991 101.56C289.591 101.693 289.298 101.973 289.111 102.4C288.951 102.8 288.871 103.467 288.871 104.4V123C288.871 124.147 289.071 124.867 289.471 125.16C289.898 125.427 290.711 125.56 291.911 125.56H295.551C296.885 125.56 297.911 125.347 298.631 124.92C299.378 124.467 299.911 123.88 300.231 123.16C300.578 122.413 300.791 121.613 300.871 120.76H301.791L301.471 127H282.671ZM314.66 127.6C313.913 127.6 313.086 127.507 312.18 127.32C311.273 127.16 310.406 126.893 309.58 126.52C308.78 126.147 308.113 125.64 307.58 125C307.073 124.333 306.82 123.52 306.82 122.56C306.82 122.027 306.886 121.467 307.02 120.88C307.153 120.293 307.326 119.813 307.54 119.44H308.46C308.566 121.467 309.233 123.067 310.46 124.24C311.686 125.413 313.246 126 315.14 126C316.446 126 317.486 125.76 318.26 125.28C319.06 124.8 319.633 124.187 319.98 123.44C320.353 122.667 320.54 121.853 320.54 121C320.54 119.773 320.233 118.773 319.62 118C319.006 117.2 318.206 116.533 317.22 116C316.26 115.44 315.233 114.92 314.14 114.44C313.073 113.933 312.046 113.373 311.06 112.76C310.1 112.147 309.313 111.387 308.7 110.48C308.086 109.573 307.78 108.427 307.78 107.04C307.78 105.6 308.14 104.347 308.86 103.28C309.58 102.187 310.593 101.333 311.9 100.72C313.206 100.107 314.74 99.8 316.5 99.8C318.046 99.8 319.313 99.92 320.3 100.16C321.313 100.4 322.126 100.64 322.74 100.88V106.68H321.82C321.66 104.973 321.153 103.667 320.3 102.76C319.446 101.853 318.086 101.4 316.22 101.4C314.913 101.4 313.846 101.613 313.02 102.04C312.22 102.44 311.633 102.973 311.26 103.64C310.913 104.28 310.74 104.96 310.74 105.68C310.74 106.747 311.046 107.627 311.66 108.32C312.273 109.013 313.06 109.613 314.02 110.12C315.006 110.627 316.046 111.133 317.14 111.64C318.26 112.147 319.3 112.733 320.26 113.4C321.246 114.067 322.046 114.893 322.66 115.88C323.273 116.867 323.58 118.12 323.58 119.64C323.58 121.293 323.193 122.72 322.42 123.92C321.673 125.093 320.62 126 319.26 126.64C317.926 127.28 316.393 127.6 314.66 127.6Z" fill="#FF914C"/>
<path d="M190.342 146.233V147H186.577V146.233H190.342ZM186.768 139.891V147H185.825V139.891H186.768ZM189.844 142.947V143.714H186.577V142.947H189.844ZM190.293 139.891V140.662H186.577V139.891H190.293ZM191.807 139.891H192.72L195.049 145.687L197.373 139.891H198.291L195.4 147H194.688L191.807 139.891ZM191.509 139.891H192.314L192.446 144.227V147H191.509V139.891ZM197.778 139.891H198.584V147H197.646V144.227L197.778 139.891ZM202.861 144.212H200.962V143.445H202.861C203.229 143.445 203.527 143.387 203.755 143.27C203.983 143.152 204.149 142.99 204.253 142.781C204.36 142.573 204.414 142.335 204.414 142.068C204.414 141.824 204.36 141.595 204.253 141.38C204.149 141.165 203.983 140.993 203.755 140.862C203.527 140.729 203.229 140.662 202.861 140.662H201.182V147H200.239V139.891H202.861C203.398 139.891 203.853 139.983 204.224 140.169C204.595 140.354 204.876 140.612 205.068 140.94C205.26 141.266 205.356 141.639 205.356 142.059C205.356 142.514 205.26 142.903 205.068 143.226C204.876 143.548 204.595 143.794 204.224 143.963C203.853 144.129 203.398 144.212 202.861 144.212ZM212.021 143.221V143.67C212.021 144.204 211.955 144.682 211.821 145.105C211.688 145.529 211.496 145.888 211.245 146.185C210.994 146.481 210.693 146.707 210.342 146.863C209.993 147.02 209.603 147.098 209.17 147.098C208.75 147.098 208.364 147.02 208.013 146.863C207.664 146.707 207.362 146.481 207.104 146.185C206.851 145.888 206.654 145.529 206.514 145.105C206.374 144.682 206.304 144.204 206.304 143.67V143.221C206.304 142.687 206.372 142.21 206.509 141.79C206.649 141.367 206.846 141.007 207.1 140.711C207.354 140.411 207.655 140.184 208.003 140.027C208.354 139.871 208.74 139.793 209.16 139.793C209.593 139.793 209.984 139.871 210.332 140.027C210.684 140.184 210.985 140.411 211.235 140.711C211.489 141.007 211.683 141.367 211.816 141.79C211.953 142.21 212.021 142.687 212.021 143.221ZM211.089 143.67V143.211C211.089 142.788 211.045 142.413 210.957 142.088C210.872 141.762 210.747 141.489 210.581 141.268C210.415 141.046 210.212 140.879 209.971 140.765C209.733 140.651 209.463 140.594 209.16 140.594C208.867 140.594 208.602 140.651 208.364 140.765C208.13 140.879 207.928 141.046 207.759 141.268C207.593 141.489 207.464 141.762 207.373 142.088C207.282 142.413 207.236 142.788 207.236 143.211V143.67C207.236 144.096 207.282 144.474 207.373 144.803C207.464 145.128 207.594 145.403 207.764 145.628C207.936 145.849 208.14 146.017 208.374 146.131C208.612 146.245 208.877 146.302 209.17 146.302C209.476 146.302 209.748 146.245 209.985 146.131C210.223 146.017 210.423 145.849 210.586 145.628C210.752 145.403 210.877 145.128 210.962 144.803C211.047 144.474 211.089 144.096 211.089 143.67ZM215.303 144.852L216.714 139.891H217.397L217.002 141.819L215.483 147H214.805L215.303 144.852ZM213.843 139.891L214.966 144.754L215.303 147H214.629L212.905 139.891H213.843ZM219.224 144.749L220.322 139.891H221.265L219.546 147H218.872L219.224 144.749ZM217.5 139.891L218.872 144.852L219.37 147H218.691L217.227 141.819L216.826 139.891H217.5ZM226.826 146.233V147H223.062V146.233H226.826ZM223.252 139.891V147H222.31V139.891H223.252ZM226.328 142.947V143.714H223.062V142.947H226.328ZM226.777 139.891V140.662H223.062V139.891H226.777ZM227.993 139.891H230.347C230.881 139.891 231.331 139.972 231.699 140.135C232.07 140.298 232.352 140.538 232.544 140.857C232.739 141.173 232.837 141.562 232.837 142.024C232.837 142.35 232.77 142.648 232.637 142.918C232.507 143.185 232.318 143.413 232.07 143.602C231.826 143.787 231.533 143.925 231.191 144.017L230.928 144.119H228.716L228.706 143.353H230.376C230.715 143.353 230.996 143.294 231.221 143.177C231.445 143.056 231.615 142.895 231.729 142.693C231.842 142.492 231.899 142.269 231.899 142.024C231.899 141.751 231.846 141.512 231.738 141.307C231.631 141.102 231.462 140.944 231.23 140.833C231.003 140.719 230.708 140.662 230.347 140.662H228.936V147H227.993V139.891ZM232.148 147L230.42 143.777L231.401 143.772L233.154 146.941V147H232.148ZM236.963 139.891L238.809 143.46L240.659 139.891H241.729L239.277 144.344V147H238.335V144.344L235.884 139.891H236.963ZM247.969 143.221V143.67C247.969 144.204 247.902 144.682 247.769 145.105C247.635 145.529 247.443 145.888 247.192 146.185C246.942 146.481 246.641 146.707 246.289 146.863C245.941 147.02 245.55 147.098 245.117 147.098C244.697 147.098 244.312 147.02 243.96 146.863C243.612 146.707 243.309 146.481 243.052 146.185C242.798 145.888 242.601 145.529 242.461 145.105C242.321 144.682 242.251 144.204 242.251 143.67V143.221C242.251 142.687 242.319 142.21 242.456 141.79C242.596 141.367 242.793 141.007 243.047 140.711C243.301 140.411 243.602 140.184 243.95 140.027C244.302 139.871 244.688 139.793 245.107 139.793C245.54 139.793 245.931 139.871 246.279 140.027C246.631 140.184 246.932 140.411 247.183 140.711C247.437 141.007 247.63 141.367 247.764 141.79C247.9 142.21 247.969 142.687 247.969 143.221ZM247.036 143.67V143.211C247.036 142.788 246.992 142.413 246.904 142.088C246.82 141.762 246.694 141.489 246.528 141.268C246.362 141.046 246.159 140.879 245.918 140.765C245.68 140.651 245.41 140.594 245.107 140.594C244.814 140.594 244.549 140.651 244.312 140.765C244.077 140.879 243.875 141.046 243.706 141.268C243.54 141.489 243.411 141.762 243.32 142.088C243.229 142.413 243.184 142.788 243.184 143.211V143.67C243.184 144.096 243.229 144.474 243.32 144.803C243.411 145.128 243.542 145.403 243.711 145.628C243.883 145.849 244.087 146.017 244.321 146.131C244.559 146.245 244.824 146.302 245.117 146.302C245.423 146.302 245.695 146.245 245.933 146.131C246.17 146.017 246.37 145.849 246.533 145.628C246.699 145.403 246.825 145.128 246.909 144.803C246.994 144.474 247.036 144.096 247.036 143.67ZM253.447 139.891H254.385V144.7C254.385 145.234 254.266 145.678 254.028 146.033C253.791 146.388 253.475 146.655 253.081 146.834C252.69 147.01 252.266 147.098 251.807 147.098C251.325 147.098 250.889 147.01 250.498 146.834C250.111 146.655 249.803 146.388 249.575 146.033C249.351 145.678 249.238 145.234 249.238 144.7V139.891H250.171V144.7C250.171 145.071 250.239 145.377 250.376 145.618C250.513 145.859 250.703 146.038 250.947 146.155C251.195 146.272 251.481 146.331 251.807 146.331C252.135 146.331 252.422 146.272 252.666 146.155C252.913 146.038 253.105 145.859 253.242 145.618C253.379 145.377 253.447 145.071 253.447 144.7V139.891ZM255.864 139.891H258.218C258.752 139.891 259.202 139.972 259.57 140.135C259.941 140.298 260.223 140.538 260.415 140.857C260.61 141.173 260.708 141.562 260.708 142.024C260.708 142.35 260.641 142.648 260.508 142.918C260.378 143.185 260.189 143.413 259.941 143.602C259.697 143.787 259.404 143.925 259.062 144.017L258.799 144.119H256.587L256.577 143.353H258.247C258.586 143.353 258.867 143.294 259.092 143.177C259.316 143.056 259.486 142.895 259.6 142.693C259.714 142.492 259.771 142.269 259.771 142.024C259.771 141.751 259.717 141.512 259.609 141.307C259.502 141.102 259.333 140.944 259.102 140.833C258.874 140.719 258.579 140.662 258.218 140.662H256.807V147H255.864V139.891ZM260.02 147L258.291 143.777L259.272 143.772L261.025 146.941V147H260.02ZM268.296 145.203C268.296 145.037 268.27 144.891 268.218 144.764C268.169 144.633 268.081 144.516 267.954 144.412C267.83 144.308 267.658 144.209 267.437 144.114C267.218 144.02 266.942 143.924 266.606 143.826C266.255 143.722 265.938 143.606 265.654 143.479C265.371 143.349 265.129 143.201 264.927 143.035C264.725 142.869 264.57 142.679 264.463 142.464C264.355 142.249 264.302 142.003 264.302 141.727C264.302 141.45 264.359 141.194 264.473 140.96C264.587 140.726 264.749 140.522 264.961 140.35C265.176 140.174 265.431 140.037 265.728 139.939C266.024 139.842 266.354 139.793 266.719 139.793C267.253 139.793 267.705 139.896 268.076 140.101C268.451 140.302 268.735 140.568 268.931 140.896C269.126 141.222 269.224 141.57 269.224 141.941H268.286C268.286 141.674 268.229 141.438 268.115 141.233C268.001 141.025 267.829 140.862 267.598 140.745C267.367 140.625 267.074 140.564 266.719 140.564C266.383 140.564 266.107 140.615 265.889 140.716C265.671 140.817 265.508 140.953 265.4 141.126C265.296 141.299 265.244 141.495 265.244 141.717C265.244 141.867 265.275 142.003 265.337 142.127C265.402 142.247 265.501 142.36 265.635 142.464C265.771 142.568 265.944 142.664 266.152 142.752C266.364 142.84 266.616 142.924 266.909 143.006C267.313 143.12 267.661 143.247 267.954 143.387C268.247 143.527 268.488 143.685 268.677 143.86C268.869 144.033 269.01 144.23 269.102 144.451C269.196 144.669 269.243 144.917 269.243 145.193C269.243 145.483 269.185 145.745 269.067 145.979C268.95 146.214 268.783 146.414 268.564 146.58C268.346 146.746 268.084 146.875 267.778 146.966C267.476 147.054 267.137 147.098 266.763 147.098C266.434 147.098 266.11 147.052 265.791 146.961C265.475 146.87 265.187 146.733 264.927 146.551C264.67 146.368 264.463 146.144 264.307 145.877C264.154 145.607 264.077 145.294 264.077 144.939H265.015C265.015 145.184 265.062 145.394 265.156 145.569C265.251 145.742 265.379 145.885 265.542 145.999C265.708 146.113 265.895 146.198 266.104 146.253C266.315 146.305 266.535 146.331 266.763 146.331C267.091 146.331 267.37 146.285 267.598 146.194C267.826 146.103 267.998 145.973 268.115 145.804C268.236 145.634 268.296 145.434 268.296 145.203ZM271.387 139.891V147H270.444V139.891H271.387ZM275.679 139.891L272.725 143.206L271.064 144.93L270.908 143.924L272.158 142.547L274.546 139.891H275.679ZM274.771 147L272.139 143.533L272.7 142.786L275.894 147H274.771ZM277.734 139.891V147H276.792V139.891H277.734ZM283.76 146.233V147H280.205V146.233H283.76ZM280.391 139.891V147H279.448V139.891H280.391ZM289.15 146.233V147H285.596V146.233H289.15ZM285.781 139.891V147H284.839V139.891H285.781ZM294.019 145.203C294.019 145.037 293.993 144.891 293.94 144.764C293.892 144.633 293.804 144.516 293.677 144.412C293.553 144.308 293.381 144.209 293.159 144.114C292.941 144.02 292.664 143.924 292.329 143.826C291.978 143.722 291.66 143.606 291.377 143.479C291.094 143.349 290.851 143.201 290.649 143.035C290.448 142.869 290.293 142.679 290.186 142.464C290.078 142.249 290.024 142.003 290.024 141.727C290.024 141.45 290.081 141.194 290.195 140.96C290.309 140.726 290.472 140.522 290.684 140.35C290.898 140.174 291.154 140.037 291.45 139.939C291.746 139.842 292.077 139.793 292.441 139.793C292.975 139.793 293.428 139.896 293.799 140.101C294.173 140.302 294.458 140.568 294.653 140.896C294.849 141.222 294.946 141.57 294.946 141.941H294.009C294.009 141.674 293.952 141.438 293.838 141.233C293.724 141.025 293.551 140.862 293.32 140.745C293.089 140.625 292.796 140.564 292.441 140.564C292.106 140.564 291.829 140.615 291.611 140.716C291.393 140.817 291.23 140.953 291.123 141.126C291.019 141.299 290.967 141.495 290.967 141.717C290.967 141.867 290.998 142.003 291.06 142.127C291.125 142.247 291.224 142.36 291.357 142.464C291.494 142.568 291.667 142.664 291.875 142.752C292.087 142.84 292.339 142.924 292.632 143.006C293.035 143.12 293.384 143.247 293.677 143.387C293.97 143.527 294.211 143.685 294.399 143.86C294.591 144.033 294.733 144.23 294.824 144.451C294.919 144.669 294.966 144.917 294.966 145.193C294.966 145.483 294.907 145.745 294.79 145.979C294.673 146.214 294.505 146.414 294.287 146.58C294.069 146.746 293.807 146.875 293.501 146.966C293.198 147.054 292.86 147.098 292.485 147.098C292.157 147.098 291.833 147.052 291.514 146.961C291.198 146.87 290.91 146.733 290.649 146.551C290.392 146.368 290.186 146.144 290.029 145.877C289.876 145.607 289.8 145.294 289.8 144.939H290.737C290.737 145.184 290.785 145.394 290.879 145.569C290.973 145.742 291.102 145.885 291.265 145.999C291.431 146.113 291.618 146.198 291.826 146.253C292.038 146.305 292.257 146.331 292.485 146.331C292.814 146.331 293.092 146.285 293.32 146.194C293.548 146.103 293.721 145.973 293.838 145.804C293.958 145.634 294.019 145.434 294.019 145.203Z" fill="#141419"/>
</svg>
