<svg width="31" height="31" viewBox="0 0 31 31" fill="none" xmlns="http://www.w3.org/2000/svg">
<path fill-rule="evenodd" clip-rule="evenodd" d="M6.69343 22.1694C2.20831 17.6843 2.20831 10.4125 6.69343 5.92738C11.1786 1.44226 18.4504 1.44226 22.9355 5.92738C27.0352 10.0271 27.3875 16.4552 23.9923 20.9551L28.5235 25.4862L26.7503 27.2593L22.2733 22.7823C17.761 26.6443 10.964 26.44 6.69343 22.1694ZM21.1629 7.70054C17.657 4.1947 11.973 4.1947 8.46711 7.70054C4.96128 11.2064 4.96128 16.8905 8.46711 20.3963C11.973 23.9021 17.657 23.9021 21.1629 20.3963C24.6687 16.8905 24.6687 11.2064 21.1629 7.70054Z" fill="#92929D"/>
</svg>
