<svg width="39" height="39" viewBox="0 0 39 39" fill="none" xmlns="http://www.w3.org/2000/svg">
<g clip-path="url(#clip0_967_658)">
<path d="M19.4869 39.0001C8.72288 38.9715 -0.0263068 30.2106 5.9436e-05 19.488C0.0264256 8.7236 8.78879 -0.0263023 19.511 5.94111e-05C30.2729 0.0264212 39.0264 8.7895 38.9979 19.5121C38.9715 30.2743 30.2091 39.0264 19.4869 39.0001ZM3.18817 19.4616C3.20795 28.3148 10.217 35.7444 19.4341 35.7993C28.3349 35.852 35.7614 28.7497 35.7988 19.5385C35.8339 10.6524 28.7502 3.25573 19.5638 3.20081C10.6981 3.14589 3.28485 10.2174 3.18817 19.4616Z" fill="#46B734"/>
<path d="M16.8702 22.1129C19.9045 19.2483 22.8553 16.4671 25.7995 13.6794C26.2609 13.2422 26.7377 12.9457 27.4145 13.1192C28.4559 13.3872 28.9503 14.5383 28.3812 15.4544C28.2582 15.6543 28.0956 15.8345 27.9264 15.997C24.6372 19.1121 21.3458 22.2294 18.0523 25.3401C17.2107 26.1353 16.367 26.1177 15.5629 25.2873C14.0248 23.699 12.489 22.1064 10.962 20.5093C10.2083 19.7206 10.1798 18.7189 10.8697 18.0818C11.5706 17.4337 12.4978 17.4689 13.2097 18.2092C14.3258 19.3669 15.4244 20.5422 16.5274 21.7109C16.6417 21.8274 16.7405 21.9592 16.8702 22.1129Z" fill="#46B734"/>
</g>
<defs>
<clipPath id="clip0_967_658">
<rect width="39" height="39" fill="white"/>
</clipPath>
</defs>
</svg>
