<svg width="289" height="289" viewBox="0 0 289 289" fill="none" xmlns="http://www.w3.org/2000/svg">
<path d="M278.68 67.212C279.48 68.5983 280.26 69.9981 281.018 71.411C279.641 70.5104 278.721 68.9699 278.68 67.212Z" fill="#0046AF" fill-opacity="0.4"/>
<path d="M250.423 31.5831C252.827 33.8399 255.16 36.1726 257.417 38.5774C256.544 40.1902 254.838 41.2857 252.875 41.2857C250.025 41.2857 247.714 38.9752 247.714 36.125C247.714 34.1625 248.81 32.4558 250.423 31.5831Z" fill="#0046AF" fill-opacity="0.4"/>
<path d="M217.589 7.98242C219.002 8.74046 220.402 9.51979 221.788 10.32C220.03 10.279 218.49 9.35894 217.589 7.98242Z" fill="#0046AF" fill-opacity="0.4"/>
<path d="M67.212 10.32C68.5983 9.51979 69.9981 8.74046 71.411 7.98242C70.5104 9.35894 68.9699 10.279 67.212 10.32Z" fill="#0046AF" fill-opacity="0.4"/>
<path d="M31.5831 38.5774C33.8399 36.1726 36.1726 33.8399 38.5774 31.5831C40.1902 32.4558 41.2857 34.1625 41.2857 36.125C41.2857 38.9752 38.9752 41.2857 36.125 41.2857C34.1625 41.2857 32.4558 40.1902 31.5831 38.5774Z" fill="#0046AF" fill-opacity="0.4"/>
<path d="M7.98242 71.411C8.74046 69.9981 9.51979 68.5983 10.32 67.212C10.279 68.9699 9.35894 70.5104 7.98242 71.411Z" fill="#0046AF" fill-opacity="0.4"/>
<path d="M281.018 217.589C280.26 219.002 279.48 220.402 278.68 221.788C278.721 220.03 279.641 218.49 281.018 217.589Z" fill="#0046AF" fill-opacity="0.4"/>
<path d="M257.417 250.423C256.544 248.81 254.838 247.714 252.875 247.714C250.025 247.714 247.714 250.025 247.714 252.875C247.714 254.838 248.81 256.544 250.423 257.417C252.827 255.16 255.16 252.827 257.417 250.423Z" fill="#0046AF" fill-opacity="0.4"/>
<path d="M221.788 278.68C220.03 278.721 218.49 279.641 217.589 281.018C219.002 280.26 220.402 279.48 221.788 278.68Z" fill="#0046AF" fill-opacity="0.4"/>
<path d="M71.411 281.018C70.5104 279.641 68.9699 278.721 67.212 278.68C68.5983 279.48 69.9981 280.26 71.411 281.018Z" fill="#0046AF" fill-opacity="0.4"/>
<path d="M38.5774 257.417C40.1902 256.544 41.2857 254.838 41.2857 252.875C41.2857 250.025 38.9752 247.714 36.125 247.714C34.1625 247.714 32.4558 248.81 31.5831 250.423C33.8399 252.827 36.1726 255.16 38.5774 257.417Z" fill="#0046AF" fill-opacity="0.4"/>
<path d="M10.32 221.788C10.279 220.03 9.35894 218.49 7.98242 217.589C8.74046 219.002 9.51979 220.402 10.32 221.788Z" fill="#0046AF" fill-opacity="0.4"/>
<path d="M103.214 5.16071C103.214 8.0109 100.904 10.3214 98.0536 10.3214C95.2034 10.3214 92.8929 8.0109 92.8929 5.16071C92.8929 2.31053 95.2034 0 98.0536 0C100.904 0 103.214 2.31053 103.214 5.16071Z" fill="#0046AF" fill-opacity="0.4"/>
<path d="M134.179 5.16071C134.179 8.0109 131.868 10.3214 129.018 10.3214C126.168 10.3214 123.857 8.0109 123.857 5.16071C123.857 2.31053 126.168 0 129.018 0C131.868 0 134.179 2.31053 134.179 5.16071Z" fill="#0046AF" fill-opacity="0.4"/>
<path d="M165.143 5.16071C165.143 8.0109 162.832 10.3214 159.982 10.3214C157.132 10.3214 154.821 8.0109 154.821 5.16071C154.821 2.31053 157.132 0 159.982 0C162.832 0 165.143 2.31053 165.143 5.16071Z" fill="#0046AF" fill-opacity="0.4"/>
<path d="M196.107 5.16071C196.107 8.0109 193.797 10.3214 190.946 10.3214C188.096 10.3214 185.786 8.0109 185.786 5.16071C185.786 2.31053 188.096 0 190.946 0C193.797 0 196.107 2.31053 196.107 5.16071Z" fill="#0046AF" fill-opacity="0.4"/>
<path d="M72.25 36.125C72.25 38.9752 69.9395 41.2857 67.0893 41.2857C64.2391 41.2857 61.9286 38.9752 61.9286 36.125C61.9286 33.2748 64.2391 30.9643 67.0893 30.9643C69.9395 30.9643 72.25 33.2748 72.25 36.125Z" fill="#0046AF" fill-opacity="0.4"/>
<path d="M103.214 36.125C103.214 38.9752 100.904 41.2857 98.0536 41.2857C95.2034 41.2857 92.8929 38.9752 92.8929 36.125C92.8929 33.2748 95.2034 30.9643 98.0536 30.9643C100.904 30.9643 103.214 33.2748 103.214 36.125Z" fill="#0046AF" fill-opacity="0.4"/>
<path d="M134.179 36.125C134.179 38.9752 131.868 41.2857 129.018 41.2857C126.168 41.2857 123.857 38.9752 123.857 36.125C123.857 33.2748 126.168 30.9643 129.018 30.9643C131.868 30.9643 134.179 33.2748 134.179 36.125Z" fill="#0046AF" fill-opacity="0.4"/>
<path d="M165.143 36.125C165.143 38.9752 162.832 41.2857 159.982 41.2857C157.132 41.2857 154.821 38.9752 154.821 36.125C154.821 33.2748 157.132 30.9643 159.982 30.9643C162.832 30.9643 165.143 33.2748 165.143 36.125Z" fill="#0046AF" fill-opacity="0.4"/>
<path d="M196.107 36.125C196.107 38.9752 193.797 41.2857 190.946 41.2857C188.096 41.2857 185.786 38.9752 185.786 36.125C185.786 33.2748 188.096 30.9643 190.946 30.9643C193.797 30.9643 196.107 33.2748 196.107 36.125Z" fill="#0046AF" fill-opacity="0.4"/>
<path d="M227.071 36.125C227.071 38.9752 224.761 41.2857 221.911 41.2857C219.061 41.2857 216.75 38.9752 216.75 36.125C216.75 33.2748 219.061 30.9643 221.911 30.9643C224.761 30.9643 227.071 33.2748 227.071 36.125Z" fill="#0046AF" fill-opacity="0.4"/>
<path d="M41.2857 67.0893C41.2857 69.9395 38.9752 72.25 36.125 72.25C33.2748 72.25 30.9643 69.9395 30.9643 67.0893C30.9643 64.2391 33.2748 61.9286 36.125 61.9286C38.9752 61.9286 41.2857 64.2391 41.2857 67.0893Z" fill="#0046AF" fill-opacity="0.4"/>
<path d="M72.25 67.0893C72.25 69.9395 69.9395 72.25 67.0893 72.25C64.2391 72.25 61.9286 69.9395 61.9286 67.0893C61.9286 64.2391 64.2391 61.9286 67.0893 61.9286C69.9395 61.9286 72.25 64.2391 72.25 67.0893Z" fill="#0046AF" fill-opacity="0.4"/>
<path d="M103.214 67.0893C103.214 69.9395 100.904 72.25 98.0536 72.25C95.2034 72.25 92.8929 69.9395 92.8929 67.0893C92.8929 64.2391 95.2034 61.9286 98.0536 61.9286C100.904 61.9286 103.214 64.2391 103.214 67.0893Z" fill="#0046AF" fill-opacity="0.4"/>
<path d="M134.179 67.0893C134.179 69.9395 131.868 72.25 129.018 72.25C126.168 72.25 123.857 69.9395 123.857 67.0893C123.857 64.2391 126.168 61.9286 129.018 61.9286C131.868 61.9286 134.179 64.2391 134.179 67.0893Z" fill="#0046AF" fill-opacity="0.4"/>
<path d="M165.143 67.0893C165.143 69.9395 162.832 72.25 159.982 72.25C157.132 72.25 154.821 69.9395 154.821 67.0893C154.821 64.2391 157.132 61.9286 159.982 61.9286C162.832 61.9286 165.143 64.2391 165.143 67.0893Z" fill="#0046AF" fill-opacity="0.4"/>
<path d="M196.107 67.0893C196.107 69.9395 193.797 72.25 190.946 72.25C188.096 72.25 185.786 69.9395 185.786 67.0893C185.786 64.2391 188.096 61.9286 190.946 61.9286C193.797 61.9286 196.107 64.2391 196.107 67.0893Z" fill="#0046AF" fill-opacity="0.4"/>
<path d="M227.071 67.0893C227.071 69.9395 224.761 72.25 221.911 72.25C219.061 72.25 216.75 69.9395 216.75 67.0893C216.75 64.2391 219.061 61.9286 221.911 61.9286C224.761 61.9286 227.071 64.2391 227.071 67.0893Z" fill="#0046AF" fill-opacity="0.4"/>
<path d="M258.036 67.0893C258.036 69.9395 255.725 72.25 252.875 72.25C250.025 72.25 247.714 69.9395 247.714 67.0893C247.714 64.2391 250.025 61.9286 252.875 61.9286C255.725 61.9286 258.036 64.2391 258.036 67.0893Z" fill="#0046AF" fill-opacity="0.4"/>
<path d="M10.3214 98.0536C10.3214 100.904 8.0109 103.214 5.16071 103.214C2.31053 103.214 0 100.904 0 98.0536C0 95.2034 2.31053 92.8929 5.16071 92.8929C8.0109 92.8929 10.3214 95.2034 10.3214 98.0536Z" fill="#0046AF" fill-opacity="0.4"/>
<path d="M41.2857 98.0536C41.2857 100.904 38.9752 103.214 36.125 103.214C33.2748 103.214 30.9643 100.904 30.9643 98.0536C30.9643 95.2034 33.2748 92.8929 36.125 92.8929C38.9752 92.8929 41.2857 95.2034 41.2857 98.0536Z" fill="#0046AF" fill-opacity="0.4"/>
<path d="M72.25 98.0536C72.25 100.904 69.9395 103.214 67.0893 103.214C64.2391 103.214 61.9286 100.904 61.9286 98.0536C61.9286 95.2034 64.2391 92.8929 67.0893 92.8929C69.9395 92.8929 72.25 95.2034 72.25 98.0536Z" fill="#0046AF" fill-opacity="0.4"/>
<path d="M103.214 98.0536C103.214 100.904 100.904 103.214 98.0536 103.214C95.2034 103.214 92.8929 100.904 92.8929 98.0536C92.8929 95.2034 95.2034 92.8929 98.0536 92.8929C100.904 92.8929 103.214 95.2034 103.214 98.0536Z" fill="#0046AF" fill-opacity="0.4"/>
<path d="M134.179 98.0536C134.179 100.904 131.868 103.214 129.018 103.214C126.168 103.214 123.857 100.904 123.857 98.0536C123.857 95.2034 126.168 92.8929 129.018 92.8929C131.868 92.8929 134.179 95.2034 134.179 98.0536Z" fill="#0046AF" fill-opacity="0.4"/>
<path d="M165.143 98.0536C165.143 100.904 162.832 103.214 159.982 103.214C157.132 103.214 154.821 100.904 154.821 98.0536C154.821 95.2034 157.132 92.8929 159.982 92.8929C162.832 92.8929 165.143 95.2034 165.143 98.0536Z" fill="#0046AF" fill-opacity="0.4"/>
<path d="M196.107 98.0536C196.107 100.904 193.797 103.214 190.946 103.214C188.096 103.214 185.786 100.904 185.786 98.0536C185.786 95.2034 188.096 92.8929 190.946 92.8929C193.797 92.8929 196.107 95.2034 196.107 98.0536Z" fill="#0046AF" fill-opacity="0.4"/>
<path d="M227.071 98.0536C227.071 100.904 224.761 103.214 221.911 103.214C219.061 103.214 216.75 100.904 216.75 98.0536C216.75 95.2034 219.061 92.8929 221.911 92.8929C224.761 92.8929 227.071 95.2034 227.071 98.0536Z" fill="#0046AF" fill-opacity="0.4"/>
<path d="M258.036 98.0536C258.036 100.904 255.725 103.214 252.875 103.214C250.025 103.214 247.714 100.904 247.714 98.0536C247.714 95.2034 250.025 92.8929 252.875 92.8929C255.725 92.8929 258.036 95.2034 258.036 98.0536Z" fill="#0046AF" fill-opacity="0.4"/>
<path d="M289 98.0536C289 100.904 286.689 103.214 283.839 103.214C280.989 103.214 278.679 100.904 278.679 98.0536C278.679 95.2034 280.989 92.8929 283.839 92.8929C286.689 92.8929 289 95.2034 289 98.0536Z" fill="#0046AF" fill-opacity="0.4"/>
<path d="M10.3214 129.018C10.3214 131.868 8.0109 134.179 5.16071 134.179C2.31053 134.179 0 131.868 0 129.018C0 126.168 2.31053 123.857 5.16071 123.857C8.0109 123.857 10.3214 126.168 10.3214 129.018Z" fill="#0046AF" fill-opacity="0.4"/>
<path d="M41.2857 129.018C41.2857 131.868 38.9752 134.179 36.125 134.179C33.2748 134.179 30.9643 131.868 30.9643 129.018C30.9643 126.168 33.2748 123.857 36.125 123.857C38.9752 123.857 41.2857 126.168 41.2857 129.018Z" fill="#0046AF" fill-opacity="0.4"/>
<path d="M72.25 129.018C72.25 131.868 69.9395 134.179 67.0893 134.179C64.2391 134.179 61.9286 131.868 61.9286 129.018C61.9286 126.168 64.2391 123.857 67.0893 123.857C69.9395 123.857 72.25 126.168 72.25 129.018Z" fill="#0046AF" fill-opacity="0.4"/>
<path d="M103.214 129.018C103.214 131.868 100.904 134.179 98.0536 134.179C95.2034 134.179 92.8929 131.868 92.8929 129.018C92.8929 126.168 95.2034 123.857 98.0536 123.857C100.904 123.857 103.214 126.168 103.214 129.018Z" fill="#0046AF" fill-opacity="0.4"/>
<path d="M134.179 129.018C134.179 131.868 131.868 134.179 129.018 134.179C126.168 134.179 123.857 131.868 123.857 129.018C123.857 126.168 126.168 123.857 129.018 123.857C131.868 123.857 134.179 126.168 134.179 129.018Z" fill="#0046AF" fill-opacity="0.4"/>
<path d="M165.143 129.018C165.143 131.868 162.832 134.179 159.982 134.179C157.132 134.179 154.821 131.868 154.821 129.018C154.821 126.168 157.132 123.857 159.982 123.857C162.832 123.857 165.143 126.168 165.143 129.018Z" fill="#0046AF" fill-opacity="0.4"/>
<path d="M196.107 129.018C196.107 131.868 193.797 134.179 190.946 134.179C188.096 134.179 185.786 131.868 185.786 129.018C185.786 126.168 188.096 123.857 190.946 123.857C193.797 123.857 196.107 126.168 196.107 129.018Z" fill="#0046AF" fill-opacity="0.4"/>
<path d="M227.071 129.018C227.071 131.868 224.761 134.179 221.911 134.179C219.061 134.179 216.75 131.868 216.75 129.018C216.75 126.168 219.061 123.857 221.911 123.857C224.761 123.857 227.071 126.168 227.071 129.018Z" fill="#0046AF" fill-opacity="0.4"/>
<path d="M258.036 129.018C258.036 131.868 255.725 134.179 252.875 134.179C250.025 134.179 247.714 131.868 247.714 129.018C247.714 126.168 250.025 123.857 252.875 123.857C255.725 123.857 258.036 126.168 258.036 129.018Z" fill="#0046AF" fill-opacity="0.4"/>
<path d="M289 129.018C289 131.868 286.689 134.179 283.839 134.179C280.989 134.179 278.679 131.868 278.679 129.018C278.679 126.168 280.989 123.857 283.839 123.857C286.689 123.857 289 126.168 289 129.018Z" fill="#0046AF" fill-opacity="0.4"/>
<path d="M10.3214 159.982C10.3214 162.832 8.0109 165.143 5.16071 165.143C2.31053 165.143 0 162.832 0 159.982C0 157.132 2.31053 154.821 5.16071 154.821C8.0109 154.821 10.3214 157.132 10.3214 159.982Z" fill="#0046AF" fill-opacity="0.4"/>
<path d="M41.2857 159.982C41.2857 162.832 38.9752 165.143 36.125 165.143C33.2748 165.143 30.9643 162.832 30.9643 159.982C30.9643 157.132 33.2748 154.821 36.125 154.821C38.9752 154.821 41.2857 157.132 41.2857 159.982Z" fill="#0046AF" fill-opacity="0.4"/>
<path d="M72.25 159.982C72.25 162.832 69.9395 165.143 67.0893 165.143C64.2391 165.143 61.9286 162.832 61.9286 159.982C61.9286 157.132 64.2391 154.821 67.0893 154.821C69.9395 154.821 72.25 157.132 72.25 159.982Z" fill="#0046AF" fill-opacity="0.4"/>
<path d="M103.214 159.982C103.214 162.832 100.904 165.143 98.0536 165.143C95.2034 165.143 92.8929 162.832 92.8929 159.982C92.8929 157.132 95.2034 154.821 98.0536 154.821C100.904 154.821 103.214 157.132 103.214 159.982Z" fill="#0046AF" fill-opacity="0.4"/>
<path d="M134.179 159.982C134.179 162.832 131.868 165.143 129.018 165.143C126.168 165.143 123.857 162.832 123.857 159.982C123.857 157.132 126.168 154.821 129.018 154.821C131.868 154.821 134.179 157.132 134.179 159.982Z" fill="#0046AF" fill-opacity="0.4"/>
<path d="M165.143 159.982C165.143 162.832 162.832 165.143 159.982 165.143C157.132 165.143 154.821 162.832 154.821 159.982C154.821 157.132 157.132 154.821 159.982 154.821C162.832 154.821 165.143 157.132 165.143 159.982Z" fill="#0046AF" fill-opacity="0.4"/>
<path d="M196.107 159.982C196.107 162.832 193.797 165.143 190.946 165.143C188.096 165.143 185.786 162.832 185.786 159.982C185.786 157.132 188.096 154.821 190.946 154.821C193.797 154.821 196.107 157.132 196.107 159.982Z" fill="#0046AF" fill-opacity="0.4"/>
<path d="M227.071 159.982C227.071 162.832 224.761 165.143 221.911 165.143C219.061 165.143 216.75 162.832 216.75 159.982C216.75 157.132 219.061 154.821 221.911 154.821C224.761 154.821 227.071 157.132 227.071 159.982Z" fill="#0046AF" fill-opacity="0.4"/>
<path d="M258.036 159.982C258.036 162.832 255.725 165.143 252.875 165.143C250.025 165.143 247.714 162.832 247.714 159.982C247.714 157.132 250.025 154.821 252.875 154.821C255.725 154.821 258.036 157.132 258.036 159.982Z" fill="#0046AF" fill-opacity="0.4"/>
<path d="M289 159.982C289 162.832 286.689 165.143 283.839 165.143C280.989 165.143 278.679 162.832 278.679 159.982C278.679 157.132 280.989 154.821 283.839 154.821C286.689 154.821 289 157.132 289 159.982Z" fill="#0046AF" fill-opacity="0.4"/>
<path d="M10.3214 190.946C10.3214 193.797 8.0109 196.107 5.16071 196.107C2.31053 196.107 0 193.797 0 190.946C0 188.096 2.31053 185.786 5.16071 185.786C8.0109 185.786 10.3214 188.096 10.3214 190.946Z" fill="#0046AF" fill-opacity="0.4"/>
<path d="M41.2857 190.946C41.2857 193.797 38.9752 196.107 36.125 196.107C33.2748 196.107 30.9643 193.797 30.9643 190.946C30.9643 188.096 33.2748 185.786 36.125 185.786C38.9752 185.786 41.2857 188.096 41.2857 190.946Z" fill="#0046AF" fill-opacity="0.4"/>
<path d="M72.25 190.946C72.25 193.797 69.9395 196.107 67.0893 196.107C64.2391 196.107 61.9286 193.797 61.9286 190.946C61.9286 188.096 64.2391 185.786 67.0893 185.786C69.9395 185.786 72.25 188.096 72.25 190.946Z" fill="#0046AF" fill-opacity="0.4"/>
<path d="M103.214 190.946C103.214 193.797 100.904 196.107 98.0536 196.107C95.2034 196.107 92.8929 193.797 92.8929 190.946C92.8929 188.096 95.2034 185.786 98.0536 185.786C100.904 185.786 103.214 188.096 103.214 190.946Z" fill="#0046AF" fill-opacity="0.4"/>
<path d="M134.179 190.946C134.179 193.797 131.868 196.107 129.018 196.107C126.168 196.107 123.857 193.797 123.857 190.946C123.857 188.096 126.168 185.786 129.018 185.786C131.868 185.786 134.179 188.096 134.179 190.946Z" fill="#0046AF" fill-opacity="0.4"/>
<path d="M165.143 190.946C165.143 193.797 162.832 196.107 159.982 196.107C157.132 196.107 154.821 193.797 154.821 190.946C154.821 188.096 157.132 185.786 159.982 185.786C162.832 185.786 165.143 188.096 165.143 190.946Z" fill="#0046AF" fill-opacity="0.4"/>
<path d="M196.107 190.946C196.107 193.797 193.797 196.107 190.946 196.107C188.096 196.107 185.786 193.797 185.786 190.946C185.786 188.096 188.096 185.786 190.946 185.786C193.797 185.786 196.107 188.096 196.107 190.946Z" fill="#0046AF" fill-opacity="0.4"/>
<path d="M227.071 190.946C227.071 193.797 224.761 196.107 221.911 196.107C219.061 196.107 216.75 193.797 216.75 190.946C216.75 188.096 219.061 185.786 221.911 185.786C224.761 185.786 227.071 188.096 227.071 190.946Z" fill="#0046AF" fill-opacity="0.4"/>
<path d="M258.036 190.946C258.036 193.797 255.725 196.107 252.875 196.107C250.025 196.107 247.714 193.797 247.714 190.946C247.714 188.096 250.025 185.786 252.875 185.786C255.725 185.786 258.036 188.096 258.036 190.946Z" fill="#0046AF" fill-opacity="0.4"/>
<path d="M289 190.946C289 193.797 286.689 196.107 283.839 196.107C280.989 196.107 278.679 193.797 278.679 190.946C278.679 188.096 280.989 185.786 283.839 185.786C286.689 185.786 289 188.096 289 190.946Z" fill="#0046AF" fill-opacity="0.4"/>
<path d="M41.2857 221.911C41.2857 224.761 38.9752 227.071 36.125 227.071C33.2748 227.071 30.9643 224.761 30.9643 221.911C30.9643 219.061 33.2748 216.75 36.125 216.75C38.9752 216.75 41.2857 219.061 41.2857 221.911Z" fill="#0046AF" fill-opacity="0.4"/>
<path d="M72.25 221.911C72.25 224.761 69.9395 227.071 67.0893 227.071C64.2391 227.071 61.9286 224.761 61.9286 221.911C61.9286 219.061 64.2391 216.75 67.0893 216.75C69.9395 216.75 72.25 219.061 72.25 221.911Z" fill="#0046AF" fill-opacity="0.4"/>
<path d="M103.214 221.911C103.214 224.761 100.904 227.071 98.0536 227.071C95.2034 227.071 92.8929 224.761 92.8929 221.911C92.8929 219.061 95.2034 216.75 98.0536 216.75C100.904 216.75 103.214 219.061 103.214 221.911Z" fill="#0046AF" fill-opacity="0.4"/>
<path d="M134.179 221.911C134.179 224.761 131.868 227.071 129.018 227.071C126.168 227.071 123.857 224.761 123.857 221.911C123.857 219.061 126.168 216.75 129.018 216.75C131.868 216.75 134.179 219.061 134.179 221.911Z" fill="#0046AF" fill-opacity="0.4"/>
<path d="M165.143 221.911C165.143 224.761 162.832 227.071 159.982 227.071C157.132 227.071 154.821 224.761 154.821 221.911C154.821 219.061 157.132 216.75 159.982 216.75C162.832 216.75 165.143 219.061 165.143 221.911Z" fill="#0046AF" fill-opacity="0.4"/>
<path d="M196.107 221.911C196.107 224.761 193.797 227.071 190.946 227.071C188.096 227.071 185.786 224.761 185.786 221.911C185.786 219.061 188.096 216.75 190.946 216.75C193.797 216.75 196.107 219.061 196.107 221.911Z" fill="#0046AF" fill-opacity="0.4"/>
<path d="M227.071 221.911C227.071 224.761 224.761 227.071 221.911 227.071C219.061 227.071 216.75 224.761 216.75 221.911C216.75 219.061 219.061 216.75 221.911 216.75C224.761 216.75 227.071 219.061 227.071 221.911Z" fill="#0046AF" fill-opacity="0.4"/>
<path d="M258.036 221.911C258.036 224.761 255.725 227.071 252.875 227.071C250.025 227.071 247.714 224.761 247.714 221.911C247.714 219.061 250.025 216.75 252.875 216.75C255.725 216.75 258.036 219.061 258.036 221.911Z" fill="#0046AF" fill-opacity="0.4"/>
<path d="M72.25 252.875C72.25 255.725 69.9395 258.036 67.0893 258.036C64.2391 258.036 61.9286 255.725 61.9286 252.875C61.9286 250.025 64.2391 247.714 67.0893 247.714C69.9395 247.714 72.25 250.025 72.25 252.875Z" fill="#0046AF" fill-opacity="0.4"/>
<path d="M103.214 252.875C103.214 255.725 100.904 258.036 98.0536 258.036C95.2034 258.036 92.8929 255.725 92.8929 252.875C92.8929 250.025 95.2034 247.714 98.0536 247.714C100.904 247.714 103.214 250.025 103.214 252.875Z" fill="#0046AF" fill-opacity="0.4"/>
<path d="M134.179 252.875C134.179 255.725 131.868 258.036 129.018 258.036C126.168 258.036 123.857 255.725 123.857 252.875C123.857 250.025 126.168 247.714 129.018 247.714C131.868 247.714 134.179 250.025 134.179 252.875Z" fill="#0046AF" fill-opacity="0.4"/>
<path d="M165.143 252.875C165.143 255.725 162.832 258.036 159.982 258.036C157.132 258.036 154.821 255.725 154.821 252.875C154.821 250.025 157.132 247.714 159.982 247.714C162.832 247.714 165.143 250.025 165.143 252.875Z" fill="#0046AF" fill-opacity="0.4"/>
<path d="M196.107 252.875C196.107 255.725 193.797 258.036 190.946 258.036C188.096 258.036 185.786 255.725 185.786 252.875C185.786 250.025 188.096 247.714 190.946 247.714C193.797 247.714 196.107 250.025 196.107 252.875Z" fill="#0046AF" fill-opacity="0.4"/>
<path d="M227.071 252.875C227.071 255.725 224.761 258.036 221.911 258.036C219.061 258.036 216.75 255.725 216.75 252.875C216.75 250.025 219.061 247.714 221.911 247.714C224.761 247.714 227.071 250.025 227.071 252.875Z" fill="#0046AF" fill-opacity="0.4"/>
<path d="M103.214 283.839C103.214 286.689 100.904 289 98.0536 289C95.2034 289 92.8929 286.689 92.8929 283.839C92.8929 280.989 95.2034 278.679 98.0536 278.679C100.904 278.679 103.214 280.989 103.214 283.839Z" fill="#0046AF" fill-opacity="0.4"/>
<path d="M134.179 283.839C134.179 286.689 131.868 289 129.018 289C126.168 289 123.857 286.689 123.857 283.839C123.857 280.989 126.168 278.679 129.018 278.679C131.868 278.679 134.179 280.989 134.179 283.839Z" fill="#0046AF" fill-opacity="0.4"/>
<path d="M165.143 283.839C165.143 286.689 162.832 289 159.982 289C157.132 289 154.821 286.689 154.821 283.839C154.821 280.989 157.132 278.679 159.982 278.679C162.832 278.679 165.143 280.989 165.143 283.839Z" fill="#0046AF" fill-opacity="0.4"/>
<path d="M196.107 283.839C196.107 286.689 193.797 289 190.946 289C188.096 289 185.786 286.689 185.786 283.839C185.786 280.989 188.096 278.679 190.946 278.679C193.797 278.679 196.107 280.989 196.107 283.839Z" fill="#0046AF" fill-opacity="0.4"/>
</svg>
