<svg width="402" height="107" viewBox="0 0 402 107" fill="none" xmlns="http://www.w3.org/2000/svg">
<circle cx="183.545" cy="5.77684" r="5.77684" transform="rotate(90 183.545 5.77684)" fill="#FF914C"/>
<circle cx="147.992" cy="5.77684" r="5.77684" transform="rotate(90 147.992 5.77684)" fill="#FF914C"/>
<circle cx="112.438" cy="5.77684" r="5.77684" transform="rotate(90 112.438 5.77684)" fill="#FF914C"/>
<circle cx="76.8843" cy="5.77684" r="5.77684" transform="rotate(90 76.8843 5.77684)" fill="#FF914C"/>
<circle cx="41.3306" cy="5.77684" r="5.77684" transform="rotate(90 41.3306 5.77684)" fill="#FF914C"/>
<circle cx="5.77687" cy="5.77684" r="5.77684" transform="rotate(90 5.77687 5.77684)" fill="#FF914C"/>
<circle cx="183.545" cy="37.3305" r="5.77684" transform="rotate(90 183.545 37.3305)" fill="#FF914C"/>
<circle cx="147.992" cy="37.3305" r="5.77684" transform="rotate(90 147.992 37.3305)" fill="#FF914C"/>
<circle cx="112.438" cy="37.3305" r="5.77684" transform="rotate(90 112.438 37.3305)" fill="#FF914C"/>
<circle cx="76.8843" cy="37.3305" r="5.77684" transform="rotate(90 76.8843 37.3305)" fill="#FF914C"/>
<circle cx="41.3306" cy="37.3305" r="5.77684" transform="rotate(90 41.3306 37.3305)" fill="#FF914C"/>
<circle cx="5.77687" cy="37.3305" r="5.77684" transform="rotate(90 5.77687 37.3305)" fill="#FF914C"/>
<circle cx="183.545" cy="68.8843" r="5.77684" transform="rotate(90 183.545 68.8843)" fill="#FF914C"/>
<circle cx="147.992" cy="68.8843" r="5.77684" transform="rotate(90 147.992 68.8843)" fill="#FF914C"/>
<circle cx="112.438" cy="68.8843" r="5.77684" transform="rotate(90 112.438 68.8843)" fill="#FF914C"/>
<circle cx="76.8843" cy="68.8843" r="5.77684" transform="rotate(90 76.8843 68.8843)" fill="#FF914C"/>
<circle cx="41.3306" cy="68.8843" r="5.77684" transform="rotate(90 41.3306 68.8843)" fill="#FF914C"/>
<circle cx="5.77687" cy="68.8843" r="5.77684" transform="rotate(90 5.77687 68.8843)" fill="#FF914C"/>
<circle cx="183.545" cy="100.438" r="5.77684" transform="rotate(90 183.545 100.438)" fill="#FF914C"/>
<circle cx="147.992" cy="100.438" r="5.77684" transform="rotate(90 147.992 100.438)" fill="#FF914C"/>
<circle cx="112.438" cy="100.438" r="5.77684" transform="rotate(90 112.438 100.438)" fill="#FF914C"/>
<circle cx="76.8843" cy="100.438" r="5.77684" transform="rotate(90 76.8843 100.438)" fill="#FF914C"/>
<circle cx="41.3306" cy="100.438" r="5.77684" transform="rotate(90 41.3306 100.438)" fill="#FF914C"/>
<circle cx="5.77687" cy="100.438" r="5.77684" transform="rotate(90 5.77687 100.438)" fill="#FF914C"/>
<circle cx="396.099" cy="5.77684" r="5.77684" transform="rotate(90 396.099 5.77684)" fill="#FF914C"/>
<circle cx="360.545" cy="5.77684" r="5.77684" transform="rotate(90 360.545 5.77684)" fill="#FF914C"/>
<circle cx="324.992" cy="5.77684" r="5.77684" transform="rotate(90 324.992 5.77684)" fill="#FF914C"/>
<circle cx="289.438" cy="5.77684" r="5.77684" transform="rotate(90 289.438 5.77684)" fill="#FF914C"/>
<circle cx="253.884" cy="5.77684" r="5.77684" transform="rotate(90 253.884 5.77684)" fill="#FF914C"/>
<circle cx="218.331" cy="5.77684" r="5.77684" transform="rotate(90 218.331 5.77684)" fill="#FF914C"/>
<circle cx="396.099" cy="37.3305" r="5.77684" transform="rotate(90 396.099 37.3305)" fill="#FF914C"/>
<circle cx="360.545" cy="37.3305" r="5.77684" transform="rotate(90 360.545 37.3305)" fill="#FF914C"/>
<circle cx="324.992" cy="37.3305" r="5.77684" transform="rotate(90 324.992 37.3305)" fill="#FF914C"/>
<circle cx="289.438" cy="37.3305" r="5.77684" transform="rotate(90 289.438 37.3305)" fill="#FF914C"/>
<circle cx="253.884" cy="37.3305" r="5.77684" transform="rotate(90 253.884 37.3305)" fill="#FF914C"/>
<circle cx="218.331" cy="37.3305" r="5.77684" transform="rotate(90 218.331 37.3305)" fill="#FF914C"/>
<circle cx="396.099" cy="68.8843" r="5.77684" transform="rotate(90 396.099 68.8843)" fill="#FF914C"/>
<circle cx="360.545" cy="68.8843" r="5.77684" transform="rotate(90 360.545 68.8843)" fill="#FF914C"/>
<circle cx="324.992" cy="68.8843" r="5.77684" transform="rotate(90 324.992 68.8843)" fill="#FF914C"/>
<circle cx="289.438" cy="68.8843" r="5.77684" transform="rotate(90 289.438 68.8843)" fill="#FF914C"/>
<circle cx="253.884" cy="68.8843" r="5.77684" transform="rotate(90 253.884 68.8843)" fill="#FF914C"/>
<circle cx="218.331" cy="68.8843" r="5.77684" transform="rotate(90 218.331 68.8843)" fill="#FF914C"/>
<circle cx="396.099" cy="100.438" r="5.77684" transform="rotate(90 396.099 100.438)" fill="#FF914C"/>
<circle cx="360.545" cy="100.438" r="5.77684" transform="rotate(90 360.545 100.438)" fill="#FF914C"/>
<circle cx="324.992" cy="100.438" r="5.77684" transform="rotate(90 324.992 100.438)" fill="#FF914C"/>
<circle cx="289.438" cy="100.438" r="5.77684" transform="rotate(90 289.438 100.438)" fill="#FF914C"/>
<circle cx="253.884" cy="100.438" r="5.77684" transform="rotate(90 253.884 100.438)" fill="#FF914C"/>
<circle cx="218.331" cy="100.438" r="5.77684" transform="rotate(90 218.331 100.438)" fill="#FF914C"/>
</svg>
