<svg width="20" height="21" viewBox="0 0 20 21" fill="none" xmlns="http://www.w3.org/2000/svg">
<path fill-rule="evenodd" clip-rule="evenodd" d="M6.44756 0H13.4387C16.6558 0 19.2647 2.81997 19.2647 6.29738V13.8542C19.2647 17.3316 16.6558 20.1516 13.4387 20.1516H6.44756C3.23045 20.1516 0.621582 17.3316 0.621582 13.8542V6.29738C0.621582 2.81997 3.23045 0 6.44756 0ZM13.4388 18.2628C15.6876 18.2628 17.5169 16.2854 17.5169 13.8547V6.29781C17.5169 3.86702 15.6876 1.88965 13.4388 1.88965H6.44761C4.19879 1.88965 2.36945 3.86702 2.36945 6.29781V13.8547C2.36945 16.2854 4.19879 18.2628 6.44761 18.2628H13.4388Z" fill="white"/>
<path fill-rule="evenodd" clip-rule="evenodd" d="M5.28247 10.076C5.28247 7.29381 7.36931 5.03809 9.9432 5.03809C12.5171 5.03809 14.6039 7.29381 14.6039 10.076C14.6039 12.8582 12.5171 15.1139 9.9432 15.1139C7.36931 15.1139 5.28247 12.8582 5.28247 10.076ZM7.03033 10.0764C7.03033 11.812 8.33766 13.2251 9.94327 13.2251C11.5489 13.2251 12.8562 11.812 12.8562 10.0764C12.8562 8.33961 11.5489 6.92773 9.94327 6.92773C8.33766 6.92773 7.03033 8.33961 7.03033 10.0764Z" fill="white"/>
<ellipse cx="14.9535" cy="4.65958" rx="0.621052" ry="0.6713" fill="white"/>
</svg>
