<svg width="19" height="17" viewBox="0 0 19 17" fill="none" xmlns="http://www.w3.org/2000/svg">
<path d="M18.916 1.95396C18.2227 2.28268 17.484 2.50057 16.7138 2.60637C17.5061 2.09502 18.1109 1.29147 18.3952 0.322937C17.6564 0.799019 16.8408 1.1353 15.9716 1.32296C15.2701 0.515637 14.2704 0.015625 13.1798 0.015625C11.0638 0.015625 9.36027 1.87209 9.36027 4.14796C9.36027 4.47543 9.38591 4.7903 9.44883 5.09005C6.27135 4.92254 3.45975 3.27641 1.57097 0.768791C1.24122 1.38719 1.0478 2.09502 1.0478 2.857C1.0478 4.28777 1.72944 5.55606 2.74548 6.29033C2.13143 6.27774 1.52902 6.08504 1.01867 5.7815C1.01867 5.7941 1.01867 5.81047 1.01867 5.82684C1.01867 7.83445 2.34349 9.50199 4.08079 9.88613C3.76969 9.97807 3.43062 10.0222 3.07873 10.0222C2.83404 10.0222 2.58702 10.007 2.35514 9.95162C2.85035 11.5877 4.25557 12.7905 5.92645 12.8295C4.6261 13.929 2.97503 14.5915 1.18762 14.5915C0.874188 14.5915 0.573568 14.5764 0.272949 14.5349C1.96597 15.715 3.97243 16.3888 6.13619 16.3888C13.1693 16.3888 17.0144 10.0914 17.0144 4.63286C17.0144 4.45024 17.0086 4.27391 17.0004 4.09884C17.759 3.51697 18.3963 2.79025 18.916 1.95396Z" fill="white"/>
</svg>
