<svg width="26" height="21" viewBox="0 0 26 21" fill="none" xmlns="http://www.w3.org/2000/svg">
<path fill-rule="evenodd" clip-rule="evenodd" d="M20.8799 5.13711L20.8934 5.13823L20.9068 5.13926C21.1239 5.15596 21.284 5.17883 21.3977 5.20016C21.4703 5.44367 21.5632 5.87359 21.6338 6.58959C21.7293 7.55653 21.7641 8.80049 21.7641 10.4525C21.7641 12.1039 21.7293 13.3562 21.6335 14.3335C21.5648 15.0345 21.4751 15.4685 21.4019 15.7241C21.3039 15.7376 21.1765 15.7505 21.0147 15.7588L21.0057 15.7592L20.9967 15.7597C17.2683 15.9669 8.81346 15.9678 5.04357 15.7625C4.84687 15.7461 4.69967 15.7248 4.59312 15.7048C4.52048 15.4613 4.42764 15.0314 4.35696 14.3154C4.26151 13.3484 4.22675 12.1045 4.22675 10.4525C4.22675 8.80049 4.26151 7.55653 4.35696 6.58959C4.42764 5.87359 4.52048 5.44367 4.59312 5.20016C4.70684 5.17883 4.86688 5.15596 5.08399 5.13926L5.09744 5.13823L5.11089 5.13711C8.77817 4.8315 17.2126 4.8315 20.8799 5.13711ZM-0.00927734 10.4525C-0.00927734 17.1716 0.532584 19.6641 4.7591 19.9892C8.66051 20.206 17.3303 20.206 21.2317 19.9892C25.4582 19.7725 26.0001 17.1716 26.0001 10.4525C26.0001 3.73339 25.4582 1.24083 21.2317 0.915713C17.3303 0.590596 8.66051 0.590596 4.7591 0.915713C0.532584 1.24083 -0.00927734 3.73339 -0.00927734 10.4525ZM12.8095 13.2544C11.4012 13.9585 9.74426 12.9345 9.74426 11.36V9.5442C9.74426 7.96971 11.4012 6.94566 12.8095 7.6498L14.6252 8.55767C16.1863 9.33821 16.1863 11.5659 14.6252 12.3465L12.8095 13.2544Z" fill="white"/>
</svg>
